<svg version="1.1" id="Layer_1" xmlns="http://www.w3.org/2000/svg" xmlns:xlink="http://www.w3.org/1999/xlink" x="0px" y="0px"
	 width="100%" viewBox="0 0 1008 768" enable-background="new 0 0 1008 768" xml:space="preserve">
<path fill="#000000" opacity="1.000000" stroke="none" 
	d="
M680.161011,119.655388 
	C733.801270,134.233643 784.071106,155.478851 830.125916,186.121994 
	C842.463318,194.330887 853.734009,204.083420 865.847778,212.548279 
	C871.811035,216.715271 879.324036,220.028732 887.676697,218.860321 
	C902.575073,216.776276 912.484680,225.433258 912.999695,240.542068 
	C913.033386,241.530472 913.169739,242.730957 912.700745,243.486923 
	C908.893066,249.624725 911.031677,255.211975 914.475281,260.826355 
	C913.340759,260.907196 912.595154,260.960327 911.695007,261.024475 
	C911.905701,261.561829 911.988892,262.057404 912.256653,262.414642 
	C916.523926,268.107422 921.074951,273.575928 924.157104,280.106415 
	C925.583252,283.127960 927.027527,286.259644 931.281921,286.979767 
	C933.596802,287.371552 933.731384,290.569916 934.838196,292.264557 
	C933.485535,294.019989 932.874084,292.040802 931.674866,292.473145 
	C932.884094,293.947998 931.783386,296.809998 935.371216,296.657837 
	C939.309082,296.490875 939.752869,300.347473 940.993713,302.886932 
	C941.841492,304.622070 942.105530,306.966644 938.541992,307.215942 
	C944.835022,322.560547 950.107239,338.121857 952.934937,354.367401 
	C957.394287,379.987488 957.300842,405.787842 954.569092,431.529694 
	C948.770752,486.169006 926.113953,533.245300 889.838440,574.165955 
	C853.806885,614.811340 809.766052,643.927063 760.368469,665.696411 
	C720.837952,683.117432 679.683228,694.955566 637.290100,702.599304 
	C606.959961,708.068054 576.357422,711.173462 545.526062,712.515686 
	C526.526367,713.342712 507.542450,713.560669 488.574524,713.092712 
	C446.053986,712.043640 403.878906,707.453735 362.247437,698.559143 
	C324.363190,690.465149 287.514496,678.980225 252.338760,662.680054 
	C196.927902,637.003113 148.581909,602.085144 111.986389,552.445251 
	C94.055801,528.123413 80.859352,501.406586 72.453552,472.250824 
	C61.792950,435.274231 60.511581,397.676880 65.397285,359.939545 
	C68.823219,333.477570 78.396194,308.716675 91.989746,285.635559 
	C112.858330,250.201752 140.995163,221.567062 173.818680,197.116577 
	C220.492859,162.348602 272.504272,138.849136 328.111511,122.660851 
	C349.865356,116.327904 371.848694,110.966583 394.187134,107.269058 
	C414.866333,103.846176 435.685333,101.418846 456.587097,99.597832 
	C481.534485,97.424347 506.514496,97.277969 531.483582,97.966095 
	C562.439453,98.819206 593.182251,102.041473 623.739380,107.351791 
	C642.612427,110.631607 661.306213,114.493286 680.161011,119.655388 
M625.008728,211.000168 
	C625.008728,211.000168 624.976501,210.969727 625.403503,211.504410 
	C627.298767,212.528946 629.143188,213.664536 631.097351,214.560577 
	C647.984680,222.304138 665.694885,227.506454 683.844543,231.213074 
	C705.056519,235.545074 726.546448,236.057144 748.012451,234.285233 
	C770.494995,232.429398 792.393616,227.330246 813.609009,219.633759 
	C820.367920,217.181778 827.360168,215.041672 833.457336,211.236923 
	C832.828735,208.860443 831.233887,208.120895 829.914551,207.170746 
	C804.792297,189.078842 777.761292,174.386414 749.361206,162.172440 
	C714.513672,147.185593 678.391357,136.345047 641.267944,128.588730 
	C610.889343,122.241600 580.195923,118.428551 549.284851,116.452492 
	C520.833984,114.633705 492.376526,115.218407 463.901520,117.095634 
	C432.945648,119.136414 402.386810,123.601631 372.066772,129.937164 
	C337.248688,137.212601 303.461060,147.812347 270.775360,161.852371 
	C246.084747,172.458160 222.334335,184.845856 200.013031,199.871552 
	C197.756668,201.390442 195.256027,202.709808 193.772461,205.149704 
	C195.306717,206.649124 196.905807,207.113953 198.468628,207.693054 
	C228.794189,218.929962 259.879974,227.579041 291.217590,235.476120 
	C315.820343,241.676041 340.220428,244.332687 365.015808,236.429169 
	C382.642792,230.810577 400.598206,226.419922 419.219238,225.472748 
	C421.928925,225.334930 424.212708,223.847855 426.439209,222.282394 
	C432.702240,217.878769 438.776611,213.104645 445.429352,209.375748 
	C469.746643,195.745712 496.165527,189.659973 523.860779,188.696075 
	C550.194275,187.779587 575.427551,193.526108 600.251648,201.607574 
	C601.983276,202.171280 603.165833,202.674591 605.017822,200.918945 
	C607.409546,198.651596 613.250671,201.578461 613.486877,204.964783 
	C613.559021,205.999893 613.626099,206.398300 614.454346,206.733307 
	C617.985352,208.161591 621.083313,210.658112 625.008728,211.000168 
M218.223816,409.372162 
	C174.475952,391.995544 128.890503,381.297638 82.770805,371.361603 
	C82.443840,373.211914 82.182304,374.326416 82.056885,375.455994 
	C79.839127,395.430176 82.313240,415.057800 87.390457,434.298859 
	C97.645508,473.162201 118.934669,505.610962 147.022675,533.820129 
	C183.296219,570.250183 226.427444,596.322571 273.470612,616.209351 
	C314.420593,633.520203 357.014099,645.184143 400.861755,652.519531 
	C437.915497,658.718262 475.244019,661.577515 512.731812,661.452271 
	C537.335693,661.370117 561.926453,659.766052 586.438904,656.911499 
	C622.236023,652.742676 657.376953,645.738586 691.888672,635.360535 
	C741.838196,620.340332 788.780090,599.145203 831.225342,568.508484 
	C858.982056,548.473816 883.399780,525.129089 902.734436,496.724548 
	C926.452271,461.880798 939.331970,423.730591 937.753418,381.215210 
	C937.688843,379.476227 938.295044,377.514465 936.305725,375.776520 
	C934.783752,376.059479 932.989990,376.297516 931.245544,376.732788 
	C920.110657,379.511139 908.966614,382.256470 897.862488,385.153900 
	C854.173828,396.553558 811.208252,410.178680 769.323120,427.108276 
	C761.774353,430.159454 761.571777,430.633057 764.281555,438.484589 
	C770.060303,455.228607 764.410095,473.321014 750.093689,483.835785 
	C740.022522,491.232635 728.580383,494.156097 716.256104,493.877441 
	C713.259460,493.809662 711.582214,494.445190 711.277039,497.773621 
	C708.820190,524.568115 678.222839,541.222534 656.818115,538.489929 
	C654.303772,538.169006 652.861938,538.737671 651.967773,541.390930 
	C645.549866,560.435303 620.460815,576.093689 598.253113,570.676575 
	C596.210876,570.178406 594.412354,570.160645 592.881042,572.083496 
	C583.769958,583.523987 571.024231,586.690918 557.321716,587.090332 
	C543.327271,587.498230 530.396851,583.091614 518.035217,577.000610 
	C514.752808,575.383240 512.598816,575.485229 509.610199,577.839417 
	C483.818420,598.156067 448.965698,591.741211 431.991760,563.615051 
	C430.027039,560.359436 428.238373,559.049133 424.095276,559.775269 
	C404.851440,563.147766 383.771790,553.073975 374.366150,536.321594 
	C372.847839,533.617310 371.156525,532.860107 368.018616,533.079834 
	C345.142609,534.681702 323.794708,521.112122 316.406281,499.952332 
	C314.637482,494.886658 312.451782,493.177307 306.973419,493.219818 
	C277.583588,493.447845 256.725830,466.283417 264.461243,438.059479 
	C265.493530,434.292999 264.722473,432.366302 261.548492,430.394836 
	C248.051010,422.011261 233.751114,415.322845 218.223816,409.372162 
M159.645309,231.146927 
	C125.409973,262.104675 99.321053,298.257050 87.140564,343.455566 
	C88.230164,344.048157 88.640175,344.453735 89.073326,344.480225 
	C101.890076,345.262787 114.713974,344.198303 127.403229,343.090851 
	C140.093369,341.983276 152.925674,340.184875 165.504349,340.045044 
	C205.618179,339.599152 245.776657,338.296326 285.881958,340.694336 
	C300.597778,341.574188 315.134918,344.133270 329.720734,346.153107 
	C339.567017,347.516602 348.784729,351.871277 358.741455,352.810883 
	C368.050598,353.689392 376.872925,356.724487 385.398956,360.004761 
	C392.151428,362.602722 399.091309,364.728912 405.887939,367.104675 
	C409.639130,368.415863 412.693787,369.797913 415.520844,372.483521 
	C418.324280,375.146637 419.126587,378.144470 417.808929,381.498047 
	C416.560486,384.675354 413.711914,385.447632 410.411652,385.382782 
	C378.452026,384.754730 346.487000,386.231201 314.516327,384.483826 
	C287.564667,383.010803 260.754822,384.924683 234.363632,391.075989 
	C232.053116,391.614502 229.353836,390.814209 227.233200,393.202423 
	C228.578278,393.795715 229.745499,394.349060 230.941132,394.832123 
	C244.713196,400.396545 258.129028,406.726624 270.573273,414.848419 
	C274.501953,417.412506 277.004517,417.659790 280.996216,414.718231 
	C297.717743,402.395752 320.610748,403.607208 335.781158,417.563812 
	C339.315857,420.815674 341.645294,421.227478 345.920441,418.833923 
	C365.910767,407.641785 395.249268,413.489471 408.251068,431.473083 
	C411.497284,435.963196 414.310059,436.619537 419.300415,435.643188 
	C440.889496,431.419373 472.680145,443.052856 475.530029,477.093628 
	C475.786682,480.159302 474.059723,484.298950 476.503357,486.075134 
	C478.898163,487.815796 482.845551,487.382507 486.095062,487.991180 
	C514.142639,493.244873 533.062500,520.892090 527.453796,548.085571 
	C526.603088,552.210266 522.793823,556.726440 525.303711,560.294922 
	C527.725464,563.738098 533.083374,564.460388 537.301025,565.949890 
	C549.782593,570.357971 562.319824,571.772461 574.529236,565.087280 
	C579.355469,562.444702 579.526428,560.760803 575.852051,556.687439 
	C568.597839,548.645325 561.234619,540.701721 553.981018,532.659119 
	C549.856934,528.086548 545.721924,523.510010 541.870483,518.711548 
	C540.184692,516.611145 539.198242,513.906799 541.665466,511.479065 
	C544.025574,509.156708 546.791504,509.131500 549.457397,510.759705 
	C551.720215,512.141785 553.809448,513.824524 555.896179,515.474548 
	C558.199829,517.296082 560.413086,519.231873 562.594360,521.058167 
	C567.696106,503.841797 577.442139,491.658783 595.230835,486.571564 
	C592.519775,483.464325 589.750183,480.586151 587.325439,477.442047 
	C583.618958,472.635803 584.022583,468.047638 587.978271,463.971130 
	C593.871399,457.898010 599.347961,451.497101 603.997925,444.370850 
	C608.344543,437.709503 612.740295,431.067017 618.450073,425.388336 
	C621.514282,422.340790 623.810059,418.586823 625.743652,414.708649 
	C628.728333,408.722473 631.431763,407.858276 636.967102,411.527924 
	C638.906677,412.813721 640.810791,414.196045 642.543335,415.744354 
	C661.795776,432.948914 681.200867,449.990265 700.138977,467.535156 
	C707.219482,474.094727 715.065491,477.115845 724.249268,475.602173 
	C734.494690,473.913513 743.683105,469.476868 747.444763,458.981262 
	C751.206787,448.484222 747.000122,439.724915 739.015015,432.671295 
	C728.777039,423.627625 718.444275,414.689850 708.079773,405.790985 
	C672.815979,375.513672 637.670654,345.095490 602.165466,315.103455 
	C587.175842,302.441406 572.582336,289.136444 555.283020,279.489044 
	C551.493591,277.375793 547.645752,275.079071 542.947449,274.941833 
	C543.117676,277.037109 543.535522,278.646179 544.511230,280.037109 
	C550.137695,288.057587 551.356445,297.906250 555.523926,306.512177 
	C558.297913,312.240540 557.342407,318.607574 559.108521,324.403259 
	C561.513733,332.296265 562.449951,340.294586 562.312012,348.454193 
	C562.188049,355.791687 563.516968,362.988861 564.021423,370.249451 
	C564.535583,377.651093 565.488037,385.225677 563.214111,392.549103 
	C562.312805,395.451996 560.234009,397.183777 556.935059,397.352051 
	C553.692139,397.517487 551.116394,396.275024 550.088623,393.393921 
	C546.298645,382.769348 541.273743,372.913300 535.330505,363.245026 
	C529.248108,353.350372 522.939209,343.759583 515.171509,335.207214 
	C503.810181,322.698151 490.159912,312.990875 476.228394,303.524689 
	C471.904999,300.587036 469.871002,301.403076 466.604523,304.023376 
	C459.980682,309.336884 453.207642,314.471130 446.380890,319.523590 
	C431.448639,330.574921 415.032257,337.050781 396.076172,335.305573 
	C383.216095,334.121613 370.619080,331.997559 359.711761,324.338531 
	C347.574219,315.815643 346.208282,303.186310 356.295929,292.293884 
	C367.162903,280.559875 378.159119,268.944946 388.958313,257.149323 
	C391.558044,254.309738 394.776123,251.842133 396.521637,247.496765 
	C390.776459,247.603012 385.864563,249.048584 381.068451,250.682983 
	C352.242554,260.506073 323.182465,261.661896 293.448914,254.794052 
	C259.148254,246.871384 225.640244,236.513885 192.530365,224.681274 
	C186.646652,222.578583 180.701218,217.275589 174.936447,219.072922 
	C169.349442,220.814835 165.032684,226.630920 159.645309,231.146927 
M677.301392,355.184357 
	C698.486572,373.461365 719.807251,391.585175 740.758972,410.126007 
	C745.820923,414.605499 749.720947,415.838165 756.423523,412.928833 
	C793.581482,396.799866 831.852600,383.687897 870.744812,372.365753 
	C890.248657,366.687897 909.923523,361.695984 929.742004,357.278656 
	C933.937012,356.343597 935.128418,354.829651 933.911255,350.436493 
	C931.733521,342.576355 929.860168,334.628479 927.041992,326.964447 
	C912.220032,286.655304 886.440186,254.267090 854.344177,226.430542 
	C851.973999,224.374863 849.866821,224.233734 847.108704,225.485275 
	C831.919861,232.377213 816.237244,237.935089 800.244507,242.659515 
	C764.096680,253.337952 727.337708,256.292999 690.068909,250.717270 
	C664.230713,246.851669 639.648865,238.638702 615.927185,227.675400 
	C585.112488,213.434036 552.982971,205.109131 518.687317,207.083496 
	C493.473694,208.535034 469.803131,214.701035 448.391937,228.696548 
	C432.911713,238.815262 419.768433,251.542511 406.975494,264.655396 
	C394.997009,276.933411 383.444489,289.628540 371.770905,302.201752 
	C366.982819,307.358856 367.385590,309.367798 373.534332,312.782379 
	C377.516388,314.993774 381.820190,316.188904 386.283569,316.983429 
	C406.341309,320.553833 423.494202,314.513123 439.396637,302.305878 
	C456.291443,289.336853 472.298157,275.112732 490.817200,264.340912 
	C510.810242,252.711792 531.603943,248.146484 553.789246,257.808105 
	C561.606812,261.212646 568.849609,265.740540 575.629395,270.850739 
	C610.637817,297.238037 643.427612,326.311401 677.301392,355.184357 
M485.979950,571.612061 
	C502.866150,565.912781 511.990601,552.472900 510.783844,535.077148 
	C509.754547,520.239319 497.536774,507.660339 481.421967,504.704010 
	C474.900787,503.507660 468.891693,505.351227 462.864655,507.367493 
	C460.376984,508.199738 457.728241,509.678619 455.406281,507.272461 
	C453.106873,504.889709 454.791595,502.266815 455.420898,499.747772 
	C456.427460,495.718506 457.644135,491.724854 458.365967,487.644318 
	C461.148010,471.916748 453.878510,459.275024 439.121735,454.111969 
	C427.869812,450.175293 417.559265,451.532806 408.379578,459.659363 
	C404.248291,463.316650 401.336456,462.136475 400.169617,456.676605 
	C399.996429,455.866241 399.989197,455.021820 399.869934,454.198273 
	C398.556671,445.131561 393.879700,438.401184 385.637482,434.388550 
	C369.943054,426.747772 349.943268,432.327942 339.459595,447.061707 
	C338.069489,449.015320 337.316620,451.601990 334.100433,452.821899 
	C333.640259,450.786072 333.092834,448.941559 332.818054,447.057312 
	C330.567780,431.627960 318.661652,422.269714 303.266205,423.883667 
	C292.165649,425.047394 282.871094,433.286621 280.501892,444.063232 
	C278.134644,454.830933 283.211365,466.704712 292.699524,472.591614 
	C302.454010,478.643768 314.153625,477.849823 322.962982,470.586243 
	C324.541107,469.285034 325.879242,466.909058 328.460693,468.448792 
	C331.027893,469.980042 330.703125,472.370361 330.458313,475.042603 
	C329.166687,489.141022 332.230652,501.692383 344.716675,510.144501 
	C356.078369,517.835510 367.564545,518.038330 379.267273,510.372009 
	C384.057831,507.233765 386.658051,509.084686 386.280853,515.228088 
	C385.460999,528.580139 393.278870,535.585876 404.121246,540.702759 
	C414.386902,545.547546 423.793793,544.644409 432.366547,537.004761 
	C434.381317,535.209290 436.437500,533.159912 439.389069,534.406677 
	C442.366425,535.664368 442.149933,538.604370 442.370880,541.278870 
	C444.141296,562.703735 464.266418,577.020630 485.979950,571.612061 
M593.050476,550.535339 
	C599.956116,557.244324 617.367493,555.266235 625.640930,548.480896 
	C635.309021,540.551636 636.192627,532.099426 627.941711,522.823181 
	C626.725281,521.455444 625.522217,520.073120 624.252136,518.756287 
	C620.784729,515.161194 617.832581,511.381744 615.742615,506.646881 
	C613.297485,501.107452 610.386658,495.447174 604.100525,492.888275 
	C600.507996,491.425903 595.735474,491.081818 594.289856,494.078766 
	C591.576050,499.704987 588.894043,506.119781 592.786926,512.592773 
	C594.993774,516.262268 596.022400,520.217285 596.083496,524.468933 
	C596.180664,531.233093 594.228882,532.871582 587.677551,531.647217 
	C583.708435,530.905396 580.095764,529.175415 576.350830,527.807434 
	C574.731750,527.216003 573.064270,526.690308 571.855347,528.440857 
	C570.727234,530.074463 571.482666,531.657349 572.407898,533.086792 
	C573.882751,535.365417 575.912109,537.162598 578.241638,538.442871 
	C583.720886,541.454224 588.094727,545.770935 593.050476,550.535339 
z"/>
<path fill="#000000" opacity="1.000000" stroke="none" 
	d="
M209.436676,208.261627 
	C210.388077,208.836914 211.054962,209.260498 211.994812,209.857468 
	C207.357773,210.171539 202.826920,208.596649 199.649887,205.733200 
	C202.331940,203.367966 202.331940,203.367966 209.436676,208.261627 
z"/>
<path fill="#000000" opacity="1.000000" stroke="none" 
	d="
M625.026245,211.013794 
	C623.818359,208.194962 625.883667,208.661530 627.243896,209.064728 
	C630.537048,210.040924 633.369446,211.885971 637.011963,214.865891 
	C632.070129,214.370575 629.372803,211.265381 625.351990,211.023865 
	C624.976501,210.969727 625.008728,211.000168 625.026245,211.013794 
z"/>
<path fill="#000000" opacity="1.000000" stroke="none" 
	d="
M838.598389,373.561096 
	C834.732422,374.063690 832.544128,372.233612 832.370300,369.035706 
	C832.188599,365.691498 830.223328,363.259338 829.358093,359.836456 
	C825.997375,362.009125 822.442383,365.777069 819.256775,361.547974 
	C815.042297,355.953125 819.156433,351.266754 822.717163,346.585205 
	C819.938782,343.694183 819.004089,339.398712 815.394836,336.892273 
	C813.045349,339.195465 813.051819,342.175476 812.255493,344.811005 
	C807.204895,361.525787 800.418396,377.332794 788.703186,390.623383 
	C785.706909,394.022614 782.304077,396.926758 778.497375,399.350555 
	C776.546448,400.592773 774.469666,401.587952 772.114136,400.945465 
	C771.301758,398.874817 772.759827,397.970398 773.653503,396.867706 
	C790.400146,376.204895 800.523254,352.649078 804.600464,326.410828 
	C805.137878,322.952515 804.029663,320.414520 801.832520,317.813782 
	C784.915283,297.788269 764.262939,283.119507 739.690002,273.963409 
	C738.339661,273.460297 736.698181,273.366272 735.664978,271.507050 
	C738.172363,268.866089 741.400208,268.992065 744.602234,269.397614 
	C759.373962,271.268463 772.159729,277.848145 784.141968,286.270416 
	C790.280273,290.585022 796.003113,295.403320 801.423584,300.594269 
	C802.578247,301.699951 803.549072,303.212524 805.393311,303.376526 
	C808.763306,297.414520 807.559753,292.654938 801.938171,289.706085 
	C800.295776,288.844543 798.781555,287.889832 797.770813,286.252655 
	C794.746399,281.353973 796.853149,277.230591 802.584106,276.919739 
	C803.532288,276.868256 804.527100,277.495239 805.649658,276.610138 
	C805.388916,273.938843 805.459351,271.223694 804.151001,268.569977 
	C803.010742,266.257111 802.672852,263.575287 805.235657,261.823486 
	C807.940125,259.974792 810.976013,258.798920 814.046387,260.988037 
	C816.575012,262.790894 817.907166,265.517487 816.533020,268.412323 
	C813.696167,274.388580 818.133728,279.158630 818.866638,284.514282 
	C819.105835,286.261475 821.739319,285.553406 823.334412,285.693085 
	C828.357788,286.132935 831.182617,288.711121 831.283264,292.916992 
	C831.343750,295.444122 830.309570,297.006500 827.754089,297.563629 
	C825.380920,298.081024 823.785828,297.143829 823.040344,294.996490 
	C822.479370,293.380768 822.275085,291.428925 819.954651,292.063721 
	C817.775452,292.659943 818.400452,294.751007 818.369507,296.316101 
	C818.244446,302.639679 818.395691,308.971832 817.449890,315.258606 
	C817.303833,316.229401 817.084717,317.500610 817.549194,318.203613 
	C822.124207,325.128998 826.809570,331.982422 831.543701,338.800629 
	C832.150879,339.675140 833.268005,339.727783 834.249329,339.096161 
	C835.036011,338.589813 835.367676,337.957764 834.935730,337.011383 
	C833.889893,334.720428 834.152283,332.776154 836.603210,331.566528 
	C838.154358,330.800995 839.766602,330.371338 841.279297,331.650848 
	C843.383423,333.430542 843.962524,335.831146 843.585876,338.403656 
	C843.254700,340.665222 841.874146,342.514618 839.880615,343.488312 
	C836.372375,345.201813 836.173401,347.795227 837.432495,350.909943 
	C839.160645,355.185181 838.950012,360.006104 843.493591,363.438538 
	C847.545532,366.499603 845.030762,371.471741 838.598389,373.561096 
z"/>
<path fill="#000000" opacity="1.000000" stroke="none" 
	d="
M759.062927,358.250153 
	C749.075745,357.843414 742.934998,352.997559 739.744690,343.341156 
	C736.225769,332.690460 737.967346,324.339600 745.243958,318.462952 
	C750.512573,314.207947 756.321167,311.051239 763.463013,311.917572 
	C764.932556,312.095825 766.015076,311.564301 767.162354,310.852478 
	C768.516541,310.012238 770.317566,309.550537 771.386475,310.634155 
	C775.018555,314.316223 779.574951,313.241241 783.490173,312.532440 
	C788.843933,311.563232 792.815369,313.806824 796.951538,316.147003 
	C799.917114,317.824890 803.119263,329.252716 801.529114,332.548157 
	C799.170837,337.435303 797.184204,342.495819 790.557556,343.559662 
	C786.544189,344.203979 784.698853,348.710510 781.623047,350.829041 
	C775.122559,355.306427 767.839478,358.645081 759.062927,358.250153 
M772.687012,339.669769 
	C770.513000,337.982544 767.947205,337.090363 766.044983,339.435516 
	C764.414185,341.446045 764.547180,344.330719 766.355286,346.363434 
	C768.392822,348.654022 770.789368,347.019165 772.680481,345.900452 
	C775.143921,344.443237 775.504333,342.323029 772.687012,339.669769 
M762.940247,329.475555 
	C766.665955,330.287354 767.350769,327.350220 768.332520,324.960297 
	C768.916199,323.539429 768.972656,321.863007 767.489563,320.915222 
	C765.848877,319.866699 763.771362,319.845734 762.294128,320.938660 
	C758.806580,323.518829 760.384949,326.379364 762.940247,329.475555 
M771.444031,333.349640 
	C773.211914,333.349640 774.979736,333.349640 776.665649,333.349640 
	C776.665649,331.614288 776.665649,330.009796 776.665649,328.048706 
	C773.870911,329.193787 771.570435,330.142120 771.444031,333.349640 
z"/>
</svg>